# xmcd
#
# Track frame offsets: 
#        150
#        19674
#        35535
#        52173
#        69274
#        87426
#        101948
#        119492
#        132129
#        153042
#        172612
#        190067
#        209983
#        227364
#        244045
#
# Disc length: 3517 seconds
#
# Revision: 0
# Processed by: cddbd v1.5.2PL0 Copyright (c) Steve Scherf et al.
# Submitted via: ExactAudioCopyFreeDBPlugin 1.0
#
DISCID=c50dbb0f
DTITLE=Chico Pinheiro - Meia-noite meio-dia
DYEAR=2003
DGENRE=Bossa Nova
TTITLE0=Contemplação
TTITLE1=Ao vento
TTITLE2=Meia-noite meio dia
TTITLE3=Aquela
TTITLE4=Desde o primeiro dia
TTITLE5=Essa canção
TTITLE6=Buritizais
TTITLE7=Jardim de arroz
TTITLE8=Passagem
TTITLE9=Na beira do rio
TTITLE10=Popó
TTITLE11=De frente
TTITLE12=Onde estiver
TTITLE13=Choro calado
TTITLE14=Canto vagabundo
EXTD=
EXTT0=
EXTT1=
EXTT2=
EXTT3=
EXTT4=
EXTT5=
EXTT6=
EXTT7=
EXTT8=
EXTT9=
EXTT10=
EXTT11=
EXTT12=
EXTT13=
EXTT14=
PLAYORDER=
